<svg width="18" height="18" viewBox="0 0 18 18" fill="none" xmlns="http://www.w3.org/2000/svg">
<path d="M16.5 10.6666V11.5C16.5 13.0916 15.6083 14.475 14.2917 15.175L14.8333 17.3333H13.1667L12.75 15.6666C12.6083 15.6666 12.475 15.6666 12.3333 15.6666H5.66666C5.52499 15.6666 5.39166 15.6666 5.24999 15.6666L4.83332 17.3333H3.16666L3.70832 15.175C2.39166 14.475 1.49999 13.0916 1.49999 11.5V10.6666H0.666656V8.99996H15.6667V3.16663C15.6667 2.94561 15.5789 2.73365 15.4226 2.57737C15.2663 2.42109 15.0543 2.33329 14.8333 2.33329C14.4167 2.33329 14.1 2.61663 14 2.99163C14.525 3.44163 14.8333 4.10829 14.8333 4.83329H9.83332C9.83332 4.17025 10.0967 3.53437 10.5656 3.06553C11.0344 2.59668 11.6703 2.33329 12.3333 2.33329C12.3833 2.33329 12.425 2.33329 12.475 2.33329C12.8167 1.36663 13.7417 0.666626 14.8333 0.666626C15.4964 0.666626 16.1322 0.930018 16.6011 1.39886C17.0699 1.8677 17.3333 2.50358 17.3333 3.16663V10.6666H16.5ZM14.8333 10.6666H3.16666V11.5C3.16666 12.163 3.43005 12.7989 3.89889 13.2677C4.36773 13.7366 5.00362 14 5.66666 14H12.3333C12.9964 14 13.6322 13.7366 14.1011 13.2677C14.5699 12.7989 14.8333 12.163 14.8333 11.5V10.6666Z" fill="#737D8C"/>
</svg>
