<svg width="18" height="12" viewBox="0 0 18 12" fill="none" xmlns="http://www.w3.org/2000/svg">
<path d="M15.6667 4.33329V1.83329C15.6667 1.39127 15.4911 0.967342 15.1785 0.654781C14.866 0.342221 14.442 0.166626 14 0.166626H4.00001C3.55798 0.166626 3.13405 0.342221 2.82149 0.654781C2.50893 0.967342 2.33334 1.39127 2.33334 1.83329V4.33329C1.89131 4.33329 1.46739 4.50889 1.15483 4.82145C0.842266 5.13401 0.666672 5.55793 0.666672 5.99996V10.1666H1.775L2.33334 11.8333H3.16667L3.72501 10.1666H14.275L14.8333 11.8333H15.6667L16.225 10.1666H17.3333V5.99996C17.3333 5.55793 17.1577 5.13401 16.8452 4.82145C16.5326 4.50889 16.1087 4.33329 15.6667 4.33329ZM9.83334 1.83329H14V4.33329H9.83334M4.00001 1.83329H8.16667V4.33329H4.00001M15.6667 8.49996H2.33334V5.99996H15.6667V8.49996Z" fill="#737D8C"/>
</svg>
