<svg width="12" height="17" viewBox="0 0 12 17" fill="none" xmlns="http://www.w3.org/2000/svg">
<path d="M6 2C7.65 2 9 3.35 9 5C9 6.575 7.425 9.125 6 10.925C4.575 9.05 3 6.575 3 5C3 3.35 4.35 2 6 2ZM6 0.5C3.525 0.5 1.5 2.525 1.5 5C1.5 8.375 6 13.25 6 13.25C6 13.25 10.5 8.3 10.5 5C10.5 2.525 8.475 0.5 6 0.5ZM6 3.5C5.175 3.5 4.5 4.175 4.5 5C4.5 5.825 5.175 6.5 6 6.5C6.825 6.5 7.5 5.825 7.5 5C7.5 4.175 6.825 3.5 6 3.5ZM12 13.25C12 14.9 9.3 16.25 6 16.25C2.7 16.25 0 14.9 0 13.25C0 12.275 0.9 11.45 2.325 10.85L2.775 11.525C2.025 11.9 1.5 12.35 1.5 12.875C1.5 13.925 3.525 14.75 6 14.75C8.475 14.75 10.5 13.925 10.5 12.875C10.5 12.35 9.975 11.9 9.15 11.525L9.6 10.85C11.1 11.45 12 12.275 12 13.25Z" fill="#1252AE"/>
</svg>
