<svg width="6" height="12" viewBox="0 0 6 12" fill="none" xmlns="http://www.w3.org/2000/svg">
<path d="M0.083313 7.75H1.24998C1.24998 8.38 2.04915 8.91667 2.99998 8.91667C3.95081 8.91667 4.74998 8.38 4.74998 7.75C4.74998 7.10833 4.14331 6.875 2.85998 6.56583C1.62331 6.25667 0.083313 5.87167 0.083313 4.25C0.083313 3.20583 0.940813 2.31917 2.12498 2.02167V0.75H3.87498V2.02167C5.05915 2.31917 5.91665 3.20583 5.91665 4.25H4.74998C4.74998 3.62 3.95081 3.08333 2.99998 3.08333C2.04915 3.08333 1.24998 3.62 1.24998 4.25C1.24998 4.89167 1.85665 5.125 3.13998 5.43417C4.37665 5.74333 5.91665 6.12833 5.91665 7.75C5.91665 8.79417 5.05915 9.68083 3.87498 9.97833V11.25H2.12498V9.97833C0.940813 9.68083 0.083313 8.79417 0.083313 7.75Z" fill="#1252AE"/>
</svg>
