<svg width="12" height="17" viewBox="0 0 12 17" fill="none" xmlns="http://www.w3.org/2000/svg">
<path d="M6 0.5C8.4825 0.5 10.5 2.495 10.5 4.9625C10.5 8.3075 6 13.25 6 13.25C6 13.25 1.5 8.3075 1.5 4.9625C1.5 2.495 3.5175 0.5 6 0.5ZM6 3.5C5.60218 3.5 5.22064 3.65804 4.93934 3.93934C4.65804 4.22064 4.5 4.60218 4.5 5C4.5 5.39782 4.65804 5.77936 4.93934 6.06066C5.22064 6.34196 5.60218 6.5 6 6.5C6.39782 6.5 6.77936 6.34196 7.06066 6.06066C7.34196 5.77936 7.5 5.39782 7.5 5C7.5 4.60218 7.34196 4.22064 7.06066 3.93934C6.77936 3.65804 6.39782 3.5 6 3.5ZM12 13.25C12 14.9075 9.315 16.25 6 16.25C2.685 16.25 0 14.9075 0 13.25C0 12.2825 0.915 11.42 2.3325 10.8725L2.8125 11.555C2.0025 11.8925 1.5 12.3575 1.5 12.875C1.5 13.91 3.5175 14.75 6 14.75C8.4825 14.75 10.5 13.91 10.5 12.875C10.5 12.3575 9.9975 11.8925 9.1875 11.555L9.6675 10.8725C11.085 11.42 12 12.2825 12 13.25Z" fill="#737D8C"/>
</svg>
