<svg width="14" height="14" viewBox="0 0 14 14" fill="none" xmlns="http://www.w3.org/2000/svg">
<path d="M6.99999 2.33335C8.28333 2.33335 9.33333 3.38335 9.33333 4.66669C9.33333 5.89169 8.10833 7.87502 6.99999 9.27502C5.89166 7.81669 4.66666 5.89169 4.66666 4.66669C4.66666 3.38335 5.71666 2.33335 6.99999 2.33335ZM6.99999 1.16669C5.07499 1.16669 3.49999 2.74169 3.49999 4.66669C3.49999 7.29169 6.99999 11.0834 6.99999 11.0834C6.99999 11.0834 10.5 7.23335 10.5 4.66669C10.5 2.74169 8.92499 1.16669 6.99999 1.16669ZM6.99999 3.50002C6.35833 3.50002 5.83333 4.02502 5.83333 4.66669C5.83333 5.30835 6.35833 5.83335 6.99999 5.83335C7.64166 5.83335 8.16666 5.30835 8.16666 4.66669C8.16666 4.02502 7.64166 3.50002 6.99999 3.50002ZM11.6667 11.0834C11.6667 12.3667 9.56666 13.4167 6.99999 13.4167C4.43333 13.4167 2.33333 12.3667 2.33333 11.0834C2.33333 10.325 3.03333 9.68335 4.14166 9.21669L4.49166 9.74169C3.90833 10.0334 3.49999 10.3834 3.49999 10.7917C3.49999 11.6084 5.07499 12.25 6.99999 12.25C8.92499 12.25 10.5 11.6084 10.5 10.7917C10.5 10.3834 10.0917 10.0334 9.45 9.74169L9.79999 9.21669C10.9667 9.68335 11.6667 10.325 11.6667 11.0834Z" fill="#1252AE"/>
</svg>
