<svg width="16" height="16" viewBox="0 0 16 16" fill="none" xmlns="http://www.w3.org/2000/svg">
<path d="M8.025 11.775C5.80833 11.775 4.81667 10.6833 4.81667 9.86667C4.81667 9.45 5.125 9.15 5.55 9.15C6.5 9.15 6.25833 10.5 8.025 10.5C8.93333 10.5 9.44167 10.025 9.44167 9.51667C9.44167 9.21667 9.29167 8.88333 8.69167 8.73333L6.71667 8.24167C5.125 7.84167 4.83333 6.98333 4.83333 6.175C4.83333 4.49167 6.41667 3.85833 7.9 3.85833C9.25 3.85833 10.8833 4.61667 10.8833 5.625C10.8833 6.05833 10.5 6.30833 10.0833 6.30833C9.25 6.30833 9.41667 5.18333 7.78333 5.18333C6.975 5.18333 6.525 5.55 6.525 6.075C6.525 6.6 7.16667 6.75 7.71667 6.9L9.18333 7.225C10.7833 7.58333 11.1917 8.51667 11.1917 9.39167C11.1917 10.7583 10.1417 11.775 8.025 11.775ZM13 3C14.725 4.7 15.375 7.075 14.9667 9.29167C15.3083 9.89167 15.5 10.5917 15.5 11.3333C15.5 12.4384 15.061 13.4982 14.2796 14.2796C13.4982 15.061 12.4384 15.5 11.3333 15.5C10.5917 15.5 9.89167 15.3083 9.29167 14.9667C7.075 15.375 4.7 14.725 3 13C1.275 11.3 0.625 8.925 1.03333 6.70833C0.691667 6.10833 0.5 5.40833 0.5 4.66667C0.5 3.5616 0.938987 2.50179 1.72039 1.72039C2.50179 0.938987 3.5616 0.5 4.66667 0.5C5.40833 0.5 6.10833 0.691667 6.70833 1.03333C8.925 0.625 11.3 1.275 13 3ZM4.66667 2.16667C4.00363 2.16667 3.36774 2.43006 2.8989 2.8989C2.43006 3.36774 2.16667 4.00363 2.16667 4.66667C2.16667 5.325 2.41667 5.91667 2.83333 6.36667C2.25 8.23333 2.69167 10.35 4.16667 11.8333C5.65 13.3083 7.76667 13.75 9.63333 13.1667C10.0833 13.5833 10.675 13.8333 11.3333 13.8333C11.9964 13.8333 12.6323 13.5699 13.1011 13.1011C13.5699 12.6323 13.8333 11.9964 13.8333 11.3333C13.8333 10.675 13.5833 10.0833 13.1667 9.63333C13.75 7.76667 13.3083 5.65 11.8333 4.16667C10.35 2.69167 8.23333 2.25 6.36667 2.83333C5.91667 2.41667 5.325 2.16667 4.66667 2.16667Z" fill="#5B687C"/>
</svg>
