<svg width="18" height="18" viewBox="0 0 18 18" fill="none" xmlns="http://www.w3.org/2000/svg">
<path d="M9.03334 0.666504C4.48334 0.666504 0.77501 4.37484 0.77501 8.92484C0.77501 10.3832 1.15834 11.7998 1.87501 13.0498L0.708344 17.3332L5.08334 16.1832C6.29168 16.8415 7.65001 17.1915 9.03334 17.1915C13.5833 17.1915 17.2917 13.4832 17.2917 8.93317C17.2917 6.72484 16.4333 4.64984 14.875 3.0915C13.3167 1.52484 11.2417 0.666504 9.03334 0.666504ZM9.04168 2.05817C10.875 2.05817 12.5917 2.77484 13.8917 4.07484C15.1833 5.37484 15.9 7.09984 15.9 8.93317C15.9 12.7165 12.8167 15.7915 9.03334 15.7915C7.80001 15.7915 6.59168 15.4665 5.54168 14.8332L5.29168 14.6915L2.69168 15.3748L3.38334 12.8415L3.21668 12.5748C2.53334 11.4998 2.16668 10.2248 2.16668 8.92484C2.17501 5.1415 5.25001 2.05817 9.04168 2.05817ZM6.10834 5.10817C5.97501 5.10817 5.75001 5.15817 5.55834 5.3665C5.37501 5.57484 4.83334 6.08317 4.83334 7.0915C4.83334 8.10817 5.57501 9.08317 5.66668 9.22484C5.78334 9.3665 7.13334 11.4498 9.20834 12.3332C9.70001 12.5582 10.0833 12.6832 10.3833 12.7748C10.875 12.9332 11.325 12.9082 11.6833 12.8582C12.0833 12.7998 12.9 12.3582 13.075 11.8748C13.25 11.3915 13.25 10.9832 13.2 10.8915C13.1417 10.8082 13.0083 10.7582 12.8 10.6665C12.5917 10.5498 11.575 10.0498 11.3917 9.98317C11.2 9.9165 11.0833 9.88317 10.925 10.0832C10.7917 10.2915 10.3917 10.7582 10.275 10.8915C10.15 11.0332 10.0333 11.0498 9.83334 10.9498C9.61668 10.8415 8.95001 10.6248 8.16668 9.92484C7.55001 9.37484 7.14168 8.69984 7.01668 8.4915C6.91668 8.2915 7.00834 8.1665 7.10834 8.07484C7.20001 7.98317 7.33334 7.83317 7.41668 7.70817C7.52501 7.5915 7.55834 7.49984 7.62501 7.3665C7.69168 7.22484 7.65834 7.10817 7.60834 7.00817C7.55834 6.9165 7.14168 5.88317 6.96668 5.47484C6.80001 5.07484 6.63334 5.12484 6.50001 5.1165C6.38334 5.1165 6.25001 5.10817 6.10834 5.10817Z" fill="#5B687C"/>
</svg>
